<svg xmlns="http://www.w3.org/2000/svg" width="16" height="16" viewBox="0 0 16 16" fill="none">
    <path d="M6.75 11.75V11.6831C6.75 11.1862 6.44 10.7531 6.05188 10.4431C5.54529 10.0391 5.17681 9.48764 4.99744 8.86501C4.81807 8.24237 4.83667 7.57938 5.05068 6.96779C5.26469 6.35619 5.66352 5.82625 6.19197 5.45129C6.72042 5.07634 7.35236 4.87493 8.00031 4.87493C8.64827 4.87493 9.2802 5.07634 9.80865 5.45129C10.3371 5.82625 10.7359 6.35619 10.9499 6.96779C11.164 7.57938 11.1826 8.24237 11.0032 8.86501C10.8238 9.48764 10.4553 10.0391 9.94875 10.4431C9.56 10.7538 9.25 11.1862 9.25 11.6831V11.75M6.75 11.75V13C6.75 13.1658 6.81585 13.3247 6.93306 13.4419C7.05027 13.5592 7.20924 13.625 7.375 13.625H8.625C8.79076 13.625 8.94973 13.5592 9.06694 13.4419C9.18415 13.3247 9.25 13.1658 9.25 13V11.75M6.75 11.75H9.25M13 8H13.625M3 8H2.375M8 3V2.375M11.5356 4.46437L11.9775 4.0225M4.465 4.46437L4.0225 4.0225M8 9.875V8.625" stroke="white" stroke-width="1.2" stroke-linecap="round" stroke-linejoin="round"/>
</svg>